PathFileType	4	(X/Y/Z)	C:\Users\Basilio\Documents\Thesis Gigler\squatting_fais\c3dfiles\039\SLS_pre_back3\markers_experimental.trc
DataRate	CameraRate	NumFrames	NumMarkers	Units	OrigDataRate	OrigDataStartFrame	OrigNumFrames
200.000000	200.000000	4	64	mm	200.000000	543	2175
Frame#	Time	FHD			LBHD			RBHD			C7			T10			CLAV			LSHO			LUUPA			LMUPA			LDUPA			LLEP			LMEP			LRAD			LUL			LRFIN			RSHO			RUPA1			RMUPA			RDUPA			RLEP			RMEP			RRAD			RUL			RUFIN			LASI			RASI			USACR			LSACR			RSACR			LTHI1			LTHI2			LTHI3			LTHI4			LLFC			LMFC			LTIB1			LTIB2			LTIB3			LTIB4			LLMAL			LMMAL			LHEE			LMT1			LMT2			LMT5			RTHI			RTHI2			RTHI3			RTHI4			RLFC			RMFC			RTIB1			RTIB2			RTIB3			RTIB4			RLMAL			RMMAL			RHEE			RMT1			RMT2			RMT5			*61			*62			*63			
		X1	Y1	Z1	X2	Y2	Z2	X3	Y3	Z3	X4	Y4	Z4	X5	Y5	Z5	X6	Y6	Z6	X7	Y7	Z7	X8	Y8	Z8	X9	Y9	Z9	X10	Y10	Z10	X11	Y11	Z11	X12	Y12	Z12	X13	Y13	Z13	X14	Y14	Z14	X15	Y15	Z15	X16	Y16	Z16	X17	Y17	Z17	X18	Y18	Z18	X19	Y19	Z19	X20	Y20	Z20	X21	Y21	Z21	X22	Y22	Z22	X23	Y23	Z23	X24	Y24	Z24	X25	Y25	Z25	X26	Y26	Z26	X27	Y27	Z27	X28	Y28	Z28	X29	Y29	Z29	X30	Y30	Z30	X31	Y31	Z31	X32	Y32	Z32	X33	Y33	Z33	X34	Y34	Z34	X35	Y35	Z35	X36	Y36	Z36	X37	Y37	Z37	X38	Y38	Z38	X39	Y39	Z39	X40	Y40	Z40	X41	Y41	Z41	X42	Y42	Z42	X43	Y43	Z43	X44	Y44	Z44	X45	Y45	Z45	X46	Y46	Z46	X47	Y47	Z47	X48	Y48	Z48	X49	Y49	Z49	X50	Y50	Z50	X51	Y51	Z51	X52	Y52	Z52	X53	Y53	Z53	X54	Y54	Z54	X55	Y55	Z55	X56	Y56	Z56	X57	Y57	Z57	X58	Y58	Z58	X59	Y59	Z59	X60	Y60	Z60	X61	Y61	Z61	X62	Y62	Z62	X63	Y63	Z63	X64	Y64	Z64	

544	2.715	-234.8553619384766	1768.459594726563	-691.0816040039064	-396.4247436523439	1751.315307617188	-809.7661743164065	-366.9155883789063	1755.671875	-671.1218872070314	-446.1096801757814	1584.189697265625	-747.2960205078126	-467.4601440429689	1274.560791015625	-764.1007690429689	nan	nan	nan	-380.8912963867188	1599.876831054688	-899.2500610351565	-216.5772399902344	1564.054443359375	-1013.308654785156	-194.1889648437501	1598.291137695313	-984.1286621093752	-147.8262329101563	1576.604370117188	-1015.423645019531	-81.00085449218751	1588.172973632813	-1012.4951171875	-73.01909637451173	1515.569458007813	-980.784606933594	192.8404541015626	1629.227172851563	-910.124206542969	195.258041381836	1638.0556640625	-986.3272094726565	268.0458068847657	1674.128295898438	-899.2708740234377	-334.6237792968751	1586.41845703125	-592.3392944335939	-172.7139434814453	1527.376342773438	-490.0313110351564	-147.0304870605469	1561.84765625	-516.3400878906251	-103.0987091064453	1528.912353515625	-491.1060485839845	-41.44680404663087	1546.651977539063	-501.7145080566407	-32.73363113403321	1479.457153320313	-541.6265869140626	241.9309997558594	1608.633666992188	-588.0525512695314	245.0861511230469	1598.23779296875	-513.1621093750001	320.1585998535157	1655.8037109375	-584.1714477539064	-305.1945495605469	1090.986694335938	-896.776062011719	-286.6526184082032	1076.794921875	-671.6008300781251	-477.5621032714845	1142.763061523438	-765.8211059570314	-482.2455444335939	1111.37060546875	-795.2471923828127	-476.8304748535157	1108.612060546875	-735.5341796875001	-316.5737609863282	818.215026855469	-985.2667236328127	-265.2932434082032	751.1566162109376	-997.5268554687502	-219.2765655517579	763.1822509765626	-996.1408691406252	-277.9446105957032	691.4653930664064	-985.5823364257815	-253.3309326171876	603.7692871093751	-978.9956054687502	-212.2107849121094	566.1665649414064	-876.852966308594	-321.5811157226563	484.0126953125001	-944.716735839844	-393.064666748047	531.7672119140626	-961.0429687500002	-379.3807373046876	491.2622375488282	-953.5484008789065	-437.7149047851564	456.7771911621095	-897.4939575195315	-623.1147460937501	446.8818969726564	-874.859313964844	-582.9529418945314	433.1765136718751	-798.9219360351565	-663.4826660156251	504.0133666992189	-821.8217773437502	-611.5158081054689	278.0946350097657	-786.8897705078127	-635.2417602539064	276.5239562988282	-823.2324218750002	-692.1723632812501	307.3273925781251	-852.1624755859377	-307.5617065429688	802.3400878906252	-619.7933349609376	-260.2014770507813	755.0676269531251	-622.1294555664064	-229.6155242919922	762.8793334960939	-630.2148437500001	-277.1902465820313	672.2249755859376	-640.2481079101564	-296.1313476562501	533.7969360351564	-675.8502197265626	-263.5805664062501	536.9617309570314	-790.8711547851565	-269.3078002929688	324.3542785644532	-713.3137207031251	-359.2140197753907	264.2299499511719	-709.8950805664064	-313.8519592285157	252.4403228759766	-712.9577636718751	-298.4771423339844	206.1107025146485	-749.5056762695314	-372.2565002441407	116.6274337768555	-736.1381225585939	-340.1810302734376	139.8766784667969	-818.216247558594	-441.1054992675782	97.88052368164065	-792.1413574218752	-215.4734191894532	57.55226135253908	-803.8179931640627	-219.0903320312501	56.44462203979494	-758.1939086914064	-274.3501281738282	34.23723220825196	-708.1705322265626	nan	nan	nan	nan	nan	nan	nan	nan	nan	
545	2.72	-235.0495147705079	1768.565063476563	-690.7496948242189	-396.948455810547	1751.394409179688	-809.273620605469	-366.8522033691407	1754.88134765625	-670.6931762695314	-446.2700500488282	1584.225830078125	-747.0478515625001	-467.6860351562501	1274.539184570313	-763.9454345703126	nan	nan	nan	-381.1231384277344	1599.881958007813	-898.9749755859377	-216.7779083251954	1564.365356445313	-1013.01123046875	-194.2185516357422	1598.578857421875	-983.8787841796877	-148.0333251953125	1576.816650390625	-1015.140563964844	-81.12354278564455	1588.2978515625	-1012.214965820313	-73.13104248046876	1515.791259765625	-980.6206665039065	192.6165466308594	1629.334838867188	-910.1443481445315	195.1412048339844	1638.205688476563	-986.241149902344	267.9419860839844	1674.279663085938	-899.2977294921877	-334.7649536132813	1586.326782226563	-592.0652465820314	-173.1785736083985	1526.748291015625	-490.4088745117189	-147.0515594482422	1561.700439453125	-516.1817626953126	-103.1299362182617	1528.766235351563	-491.0277404785157	-41.50138854980469	1546.448364257813	-501.651824951172	-32.72705078125001	1479.33447265625	-541.6138916015626	241.7955932617188	1608.349487304688	-588.1264648437501	245.0236053466797	1597.924682617188	-513.2568359375001	320.0789794921876	1655.658325195313	-584.2301025390626	-305.5519409179688	1090.79345703125	-896.3892211914065	-286.8818054199219	1076.74658203125	-671.3474731445314	-477.7862548828126	1142.776977539063	-765.5498046875001	-482.3753967285157	1111.412841796875	-795.0457153320315	-476.9648742675782	1108.565795898438	-735.3327026367189	-317.4330139160157	818.1274414062502	-985.3986816406252	-266.3951416015626	751.0455322265626	-997.8228759765627	-220.4487457275391	763.0945434570314	-996.5587158203127	-279.0542907714844	691.3831176757814	-986.0859375000002	-254.5618286132813	603.6274414062501	-979.482849121094	-213.2577056884766	565.8552246093751	-877.4594726562502	-322.7085876464844	483.546844482422	-944.600524902344	-395.332000732422	532.2011108398439	-961.4472656250002	-380.8158569335938	491.341278076172	-953.6234130859377	-439.1210937500001	456.9620361328126	-897.5303955078127	-624.2843627929689	447.0323791503907	-874.2733154296877	-583.7805175781251	433.6754455566407	-798.5535888671877	-664.1007080078126	505.0327758789064	-820.9229125976565	-613.4283447265626	278.7309265136719	-785.6964111328127	-637.7698364257814	277.2474365234376	-821.6732177734377	-694.2872314453126	308.0457763671876	-850.4869384765627	-307.7475280761719	802.3154296875002	-619.5758666992189	-260.6273803710938	755.0634155273439	-621.6911010742189	-229.9236907958985	762.8588256835939	-629.7740478515626	-277.3827514648438	672.2335815429689	-639.9960327148439	-296.4249877929688	534.0836791992189	-675.6522827148439	-263.4816284179688	536.9949340820314	-790.5457763671877	-269.4886779785157	324.3552856445313	-712.8347778320314	-359.3536376953126	264.2839355468751	-709.7448120117189	-313.9919433593751	252.4965972900391	-712.7971801757814	-298.5431213378907	206.0991210937501	-749.2370605468751	-372.2987976074219	116.6049728393555	-736.0393676757814	-340.0342407226563	139.9186553955078	-817.881530761719	-441.089813232422	97.88253021240237	-792.052429199219	-215.5405426025391	57.68004226684572	-803.766540527344	-219.0868377685547	56.4777297973633	-758.1394042968751	-274.3768615722657	34.20663452148438	-708.1591186523439	nan	nan	nan	nan	nan	nan	nan	nan	nan	
546	2.725	-235.1750488281251	1768.592651367188	-690.4432983398439	-395.5825195312501	1751.17529296875	-808.7677001953127	-367.1091003417969	1754.849609375	-670.3374633789064	-446.390838623047	1584.227661132813	-746.8212280273439	-467.8944396972657	1274.441650390625	-763.7779541015626	nan	nan	nan	-381.2655334472657	1599.885375976563	-898.7590332031252	-216.9450988769532	1564.544067382813	-1012.716918945313	-194.3268127441407	1598.799682617188	-983.5207519531252	-148.1976165771485	1577.046020507813	-1014.865661621094	-81.29625701904298	1588.484985351563	-1011.95703125	-73.24536132812501	1516.002319335938	-980.4309082031252	192.4836578369141	1629.073608398438	-909.9660644531252	194.9587860107422	1638.417846679688	-986.186706542969	267.9153137207032	1674.272583007813	-899.1904907226565	-335.0880432128907	1586.427490234375	-591.6205444335939	-173.2367858886719	1526.66748046875	-490.2131652832032	-147.0189819335938	1561.572387695313	-516.0280761718751	-103.1622085571289	1528.60400390625	-490.9757385253907	-41.45422744750977	1546.22021484375	-501.6156311035157	-32.82384109497071	1479.151611328125	-541.6065673828126	241.6722717285157	1608.198120117188	-588.1777343750001	245.0183563232422	1597.659057617188	-513.3338012695314	320.0441589355469	1655.491577148438	-584.3197631835939	-305.9551696777344	1090.693237304688	-896.073181152344	-287.0385131835938	1076.71630859375	-671.1196899414064	-478.0083007812501	1142.879272460938	-765.2697143554689	-482.5840148925782	1111.349853515625	-794.760437011719	-477.0895385742189	1108.571411132813	-735.1356201171876	-318.3218078613282	817.8541259765627	-985.6158447265627	-267.3518066406251	750.8983154296876	-998.142517089844	-221.7679901123047	763.1807250976564	-997.059997558594	-280.2060241699219	691.3981933593751	-986.421569824219	-255.8577270507813	603.5436401367189	-979.877624511719	-214.1099853515626	565.6585693359376	-877.9770507812502	-324.0741271972657	483.4857482910157	-944.8176269531252	-396.3086853027345	532.0480346679689	-961.5730590820315	-381.7701416015626	491.1578674316407	-953.6912841796877	-440.2522888183595	457.1763000488282	-897.2156982421877	-625.5952148437501	447.5516052246095	-873.526550292969	-584.3328247070314	434.6334228515626	-797.180358886719	-664.6056518554689	505.8444213867189	-820.231140136719	-615.5111083984376	279.0169372558594	-784.8420410156252	-639.5751953125001	277.8803710937501	-820.4959716796877	-696.3797607421876	309.2471618652344	-848.8135375976565	-308.0690612792969	802.2507934570315	-619.3113403320314	-261.2322082519532	754.4918823242189	-621.7615966796876	-230.1223602294922	762.8318481445314	-629.3377075195314	-277.6383361816407	672.2118530273439	-639.8674926757814	-296.5485839843751	534.0877075195314	-675.4952392578126	-263.4805908203126	537.0446166992189	-790.2849121093752	-269.5712585449219	324.2808532714844	-712.5396728515626	-359.4274597167969	264.3567810058594	-709.6888427734376	-314.0685119628907	252.4967193603516	-712.6679687500001	-298.5778503417969	206.1258087158204	-749.1036987304689	-372.2943115234376	116.5929336547852	-735.9467163085939	-340.4093933105469	140.0205841064453	-818.5062255859377	-441.0656127929689	97.86340332031253	-791.9907226562502	-215.5291290283204	57.73814010620119	-803.7363281250002	-219.1085205078126	56.50621414184572	-758.1622314453126	-274.3611755371094	34.18822097778321	-708.1151733398439	nan	nan	nan	nan	nan	nan	nan	nan	nan	
547	2.73	-235.4595489501954	1768.421142578125	-690.0721435546876	-395.700408935547	1751.2080078125	-808.5022583007815	-367.4736328125001	1755.197631835938	-670.0938110351564	-446.582244873047	1584.200317382813	-746.5113525390626	-467.8569335937501	1274.522827148438	-763.5073242187501	nan	nan	nan	-381.3702087402344	1599.8984375	-898.5253906250002	-217.0948638916016	1564.822265625	-1012.366516113281	-194.5635375976563	1598.996459960938	-983.1731567382815	-148.3494567871094	1577.321533203125	-1014.663513183594	-81.49404144287111	1588.641723632813	-1011.604553222656	-73.37521362304689	1516.191162109375	-980.2254028320315	192.4664306640626	1629.425903320313	-910.0744628906252	194.7795867919922	1638.5859375	-986.0977783203127	267.7791748046876	1674.1357421875	-898.9768676757815	-334.9082336425782	1586.248901367188	-591.6339111328126	-173.2611083984375	1526.57177734375	-490.1080017089845	-147.1090393066407	1561.36572265625	-515.8671264648439	-103.1885604858399	1528.362060546875	-490.8769836425782	-41.44727325439454	1546.11865234375	-501.5272521972657	-32.92511367797852	1478.938354492188	-541.5590209960939	241.5656280517579	1608.01220703125	-588.2044677734376	244.9900665283204	1597.41015625	-513.4165649414064	319.9584350585938	1655.2626953125	-584.3801879882814	-306.2505493164063	1090.58154296875	-895.7607421875002	-287.1886596679688	1076.762817382813	-670.9548339843751	-478.1649169921876	1142.919799804688	-764.9636840820314	-482.8307189941407	1111.397827148438	-794.4638671875002	-477.2124938964845	1108.630737304688	-734.9315795898439	-319.3368835449219	817.8317871093752	-985.8093872070315	-268.3825073242188	750.7025146484376	-998.5350341796877	-222.7875976562501	763.0889282226564	-997.4848632812502	-281.1567993164063	691.2743530273439	-986.7387695312502	-257.0924682617188	603.3803100585939	-980.3845214843752	-215.1735839843751	565.4470214843751	-878.4378662109377	-325.3832702636719	483.5615844726564	-945.2156372070315	-397.7295837402345	532.0598754882814	-961.7805175781252	-385.9476623535157	492.2366333007814	-953.900329589844	-441.1449279785157	457.3391418457032	-896.2092895507815	-626.7744140625001	448.3206481933595	-872.8547363281252	-585.2211303710939	434.9074096679689	-796.766296386719	-665.0224609375001	506.7133789062501	-819.646911621094	-617.0118408203126	280.1215820312501	-783.383483886719	-641.9928588867189	278.6086120605469	-818.9143066406252	-697.8333129882814	309.5927429199219	-846.9258422851565	-308.4091186523438	802.261657714844	-618.9889526367189	-260.9964599609376	754.9972534179689	-621.0184936523439	-230.2400970458985	762.8435668945314	-629.0892333984376	-277.8432922363282	672.2072753906251	-639.7092895507814	-296.7580566406251	534.2059936523439	-675.3469848632814	-263.4416198730469	537.0447387695314	-790.1164550781252	-269.5927124023438	324.3696289062501	-712.4100952148439	-359.4589233398438	264.3330993652344	-709.6350097656251	-314.1299743652344	252.5589141845704	-712.5870361328126	-298.5561828613282	206.1272735595704	-748.9962768554689	-372.3196411132813	116.5496673583985	-736.1649169921876	-340.3435363769532	140.0672454833985	-818.453552246094	-441.0464477539064	97.78907012939456	-791.905456542969	-215.5619354248047	57.73034667968751	-803.7185668945315	-219.1434631347657	56.50866317749025	-758.1160888671876	-274.3538818359376	34.1395606994629	-708.1335449218751	nan	nan	nan	nan	nan	nan	nan	nan	nan	
